# xmcd
#
# Track frame offsets: 
#        150
#        16945
#        50733
#        73241
#        89410
#        101737
#        121280
#        137199
#        156298
#        169138
#        182046
#
# Disc length: 2657 seconds
#
# Revision: 0
# Processed by: cddbd v1.5.2PL0 Copyright (c) Steve Scherf et al.
# Submitted via: ExactAudioCopy v0.95b4
#
DISCID=9d0a5f0b
DTITLE=James Booker - Mr Mystery
DYEAR=1978
DGENRE=NOLA
TTITLE0=The Long Last Laugh
TTITLE1=Junco Partner
TTITLE2=Tipitina - The Grass Looks Greener
TTITLE3=Papa Was A Rascal
TTITLE4=Let's Make A Better World
TTITLE5=One Helluva Nerve
TTITLE6=Rockin' Pneumonia
TTITLE7=Basilla Me Wahira
TTITLE8=Ain't That Love
TTITLE9=So Swell When You're Well
TTITLE10=Booker Special
EXTD=
EXTT0=
EXTT1=
EXTT2=
EXTT3=
EXTT4=
EXTT5=
EXTT6=
EXTT7=
EXTT8=
EXTT9=
EXTT10=
PLAYORDER=
